<svg xmlns="http://www.w3.org/2000/svg" viewBox="0 0 640 320"><rect width="640" height="320" fill="#F9E5D1"/><rect x="36" y="96" width="568" height="170" rx="6" fill="#F5D5B5"/><path d="M0 0h80v50a40 16 0 0 1-80 0z" fill="#E8A15A"/><path d="M80 0h80v50a40 16 0 0 1-80 0z" fill="#FFFFFF"/><path d="M160 0h80v50a40 16 0 0 1-80 0z" fill="#E8A15A"/><path d="M240 0h80v50a40 16 0 0 1-80 0z" fill="#FFFFFF"/><path d="M320 0h80v50a40 16 0 0 1-80 0z" fill="#E8A15A"/><path d="M400 0h80v50a40 16 0 0 1-80 0z" fill="#FFFFFF"/><path d="M480 0h80v50a40 16 0 0 1-80 0z" fill="#E8A15A"/><path d="M560 0h80v50a40 16 0 0 1-80 0z" fill="#FFFFFF"/><rect width="640" height="10" fill="#3A2A1F" opacity=".85"/><rect x="201" y="66" width="238" height="40" rx="10" fill="#3A2A1F"/><text x="320" y="94" text-anchor="middle" font-family="Be Vietnam Pro,Segoe UI,Roboto,sans-serif" font-weight="800" font-size="21" fill="#FFF8EF" letter-spacing="1">BÁNH MÌ · XÔI</text><rect y="262" width="640" height="58" fill="#E3CFB3"/><path d="M80 262v58" stroke="#D2BB9C" stroke-width="2"/><path d="M160 262v58" stroke="#D2BB9C" stroke-width="2"/><path d="M240 262v58" stroke="#D2BB9C" stroke-width="2"/><path d="M320 262v58" stroke="#D2BB9C" stroke-width="2"/><path d="M400 262v58" stroke="#D2BB9C" stroke-width="2"/><path d="M480 262v58" stroke="#D2BB9C" stroke-width="2"/><path d="M560 262v58" stroke="#D2BB9C" stroke-width="2"/><path d="M0 262h640" stroke="#CDB596" stroke-width="3"/><rect x="150" y="186" width="250" height="52" rx="6" fill="#2E86C1"/><rect x="150" y="186" width="250" height="10" fill="#246C9C"/><rect x="160" y="122" width="230" height="66" rx="6" fill="#EEF8FB" opacity=".9" stroke="#9CC9D3" stroke-width="3"/><rect x="176" y="160" width="58" height="20" rx="10" fill="#E8A15A"/><path d="M190 166l8 8M202 166l8 8M214 166l8 8" stroke="#F7D29C" stroke-width="3" stroke-linecap="round"/><rect x="246" y="160" width="58" height="20" rx="10" fill="#E8A15A"/><path d="M260 166l8 8M272 166l8 8M284 166l8 8" stroke="#F7D29C" stroke-width="3" stroke-linecap="round"/><rect x="316" y="160" width="58" height="20" rx="10" fill="#E8A15A"/><path d="M330 166l8 8M342 166l8 8M354 166l8 8" stroke="#F7D29C" stroke-width="3" stroke-linecap="round"/><rect x="210" y="136" width="58" height="20" rx="10" fill="#E8A15A"/><path d="M224 142l8 8M236 142l8 8M248 142l8 8" stroke="#F7D29C" stroke-width="3" stroke-linecap="round"/><rect x="282" y="136" width="58" height="20" rx="10" fill="#E8A15A"/><path d="M296 142l8 8M308 142l8 8M320 142l8 8" stroke="#F7D29C" stroke-width="3" stroke-linecap="round"/><circle cx="190" cy="248" r="16" fill="#3A2A1F"/><circle cx="190" cy="248" r="6" fill="#C9CED6"/><circle cx="360" cy="248" r="16" fill="#3A2A1F"/><circle cx="360" cy="248" r="6" fill="#C9CED6"/><path d="M400 198h40" stroke="#3A2A1F" stroke-width="6" stroke-linecap="round"/><rect x="470" y="200" width="90" height="62" rx="6" fill="#B0703C"/><path d="M478 200c0-28 74-28 74 0z" fill="#FFFDF4" stroke="#E0D8C6" stroke-width="2"/><circle cx="500" cy="189" r="3" fill="#E4572E"/><circle cx="518" cy="184" r="3" fill="#E4572E"/><circle cx="534" cy="191" r="3" fill="#F5B300"/><circle cx="510" cy="194" r="3" fill="#5FAF4E"/><text x="515" y="236" text-anchor="middle" font-family="sans-serif" font-weight="800" font-size="15" fill="#FFF8EF">XÔI</text><path d="M84 240c-14-18-6-40 0-46 6 6 14 28 0 46zm0 0c-24-6-30-24-28-30 8 0 26 8 28 30zm0 0c24-6 30-24 28-30-8 0-26 8-28 30z" fill="#5E9E61"/><path d="M70 240h28l-4 22h-20z" fill="#C2410C"/></svg>
