<svg xmlns="http://www.w3.org/2000/svg" viewBox="0 0 640 320"><rect width="640" height="320" fill="#FCEECB"/><rect x="36" y="96" width="568" height="170" rx="6" fill="#FBE4AB"/><path d="M0 0h80v50a40 16 0 0 1-80 0z" fill="#F6C445"/><path d="M80 0h80v50a40 16 0 0 1-80 0z" fill="#FFFFFF"/><path d="M160 0h80v50a40 16 0 0 1-80 0z" fill="#F6C445"/><path d="M240 0h80v50a40 16 0 0 1-80 0z" fill="#FFFFFF"/><path d="M320 0h80v50a40 16 0 0 1-80 0z" fill="#F6C445"/><path d="M400 0h80v50a40 16 0 0 1-80 0z" fill="#FFFFFF"/><path d="M480 0h80v50a40 16 0 0 1-80 0z" fill="#F6C445"/><path d="M560 0h80v50a40 16 0 0 1-80 0z" fill="#FFFFFF"/><rect width="640" height="10" fill="#3A2A1F" opacity=".85"/><rect x="233" y="66" width="174" height="40" rx="10" fill="#3A2A1F"/><text x="320" y="94" text-anchor="middle" font-family="Be Vietnam Pro,Segoe UI,Roboto,sans-serif" font-weight="800" font-size="21" fill="#FFF8EF" letter-spacing="1">PHỞ · BÚN</text><rect y="262" width="640" height="58" fill="#E3CFB3"/><path d="M80 262v58" stroke="#D2BB9C" stroke-width="2"/><path d="M160 262v58" stroke="#D2BB9C" stroke-width="2"/><path d="M240 262v58" stroke="#D2BB9C" stroke-width="2"/><path d="M320 262v58" stroke="#D2BB9C" stroke-width="2"/><path d="M400 262v58" stroke="#D2BB9C" stroke-width="2"/><path d="M480 262v58" stroke="#D2BB9C" stroke-width="2"/><path d="M560 262v58" stroke="#D2BB9C" stroke-width="2"/><path d="M0 262h640" stroke="#CDB596" stroke-width="3"/><rect x="64" y="190" width="140" height="72" rx="4" fill="#B0703C"/><rect x="84" y="128" width="102" height="64" rx="8" fill="#C9CED6"/><rect x="78" y="122" width="114" height="12" rx="6" fill="#AEB4BE"/><rect x="122" y="112" width="26" height="10" rx="4" fill="#8E949E"/><path d="M120 104c-7-9 7-15 0-24s7-15 0-24" fill="none" stroke="#FFFFFF" stroke-width="4" stroke-linecap="round" opacity=".9"/><path d="M134 104c-7-9 7-15 0-24s7-15 0-24" fill="none" stroke="#FFFFFF" stroke-width="4" stroke-linecap="round" opacity=".9"/><path d="M148 104c-7-9 7-15 0-24s7-15 0-24" fill="none" stroke="#FFFFFF" stroke-width="4" stroke-linecap="round" opacity=".9"/><rect x="258" y="232" width="8" height="30" fill="#745032"/><rect x="444" y="232" width="8" height="30" fill="#745032"/><rect x="250" y="222" width="210" height="12" rx="3" fill="#9A6A43"/><path d="M275 210a30 24 0 0 0 60 0z" fill="#E4572E"/><ellipse cx="305" cy="210" rx="30" ry="6.6" fill="#FFFFFF"/><ellipse cx="305" cy="210" rx="25.2" ry="4.5" fill="#F2C46D"/><path d="M375 210a30 24 0 0 0 60 0z" fill="#2E86C1"/><ellipse cx="405" cy="210" rx="30" ry="6.6" fill="#FFFFFF"/><ellipse cx="405" cy="210" rx="25.2" ry="4.5" fill="#F2C46D"/><path d="M288 208q17-7 34 0M388 208q17-7 34 0" stroke="#FFF3C4" stroke-width="3" fill="none"/><path d="M296 194c-7-9 7-15 0-24s7-15 0-24" fill="none" stroke="#FFFFFF" stroke-width="4" stroke-linecap="round" opacity=".9"/><path d="M314 194c-7-9 7-15 0-24s7-15 0-24" fill="none" stroke="#FFFFFF" stroke-width="4" stroke-linecap="round" opacity=".9"/><path d="M396 194c-7-9 7-15 0-24s7-15 0-24" fill="none" stroke="#FFFFFF" stroke-width="4" stroke-linecap="round" opacity=".9"/><path d="M414 194c-7-9 7-15 0-24s7-15 0-24" fill="none" stroke="#FFFFFF" stroke-width="4" stroke-linecap="round" opacity=".9"/><path d="M332 218l44-24M338 222l44-24" stroke="#9A6A43" stroke-width="4" stroke-linecap="round"/><g transform="translate(214 220)"><path d="M2 9h44l5 33h-8l-4-24H11l-4 24h-8z" fill="#B64625"/><rect x="-3" y="0" width="54" height="11" rx="4" fill="#E4572E"/></g><g transform="translate(486 220)"><path d="M2 9h44l5 33h-8l-4-24H11l-4 24h-8z" fill="#256B9A"/><rect x="-3" y="0" width="54" height="11" rx="4" fill="#2E86C1"/></g><path d="M584 240c-14-18-6-40 0-46 6 6 14 28 0 46zm0 0c-24-6-30-24-28-30 8 0 26 8 28 30zm0 0c24-6 30-24 28-30-8 0-26 8-28 30z" fill="#5E9E61"/><path d="M570 240h28l-4 22h-20z" fill="#C2410C"/></svg>
