<svg xmlns="http://www.w3.org/2000/svg" viewBox="0 0 120 120"><title>Bao vui</title><path d="M14 84C10 56 34 27 60 25c26 2 50 31 46 59-2 14-20 20-46 20s-44-6-46-20z" fill="#FFFDF8" stroke="#3A2A1F" stroke-width="3"/><path d="M60 27c-5 7-11 11-20 13M60 27c-2 8-4 14-8 19M60 27c2 8 4 14 8 19M60 27c5 7 11 11 20 13" fill="none" stroke="#D9C4A8" stroke-width="2.5" stroke-linecap="round"/><circle cx="60" cy="26" r="4" fill="#D9C4A8"/><ellipse cx="36" cy="80" rx="7" ry="4.5" fill="#FF8FB1" opacity=".6"/><ellipse cx="84" cy="80" rx="7" ry="4.5" fill="#FF8FB1" opacity=".6"/><path d="M40 68q6-8 12 0M68 68q6-8 12 0" stroke="#3A2A1F" stroke-width="3.5" stroke-linecap="round" fill="none"/><path d="M50 78q10 14 20 0z" fill="#C2410C" stroke="#3A2A1F" stroke-width="2.5" stroke-linejoin="round"/><path d="M100 22l3 7 7 3-7 3-3 7-3-7-7-3 7-3z" fill="#F6C445"/></svg>
