<svg xmlns="http://www.w3.org/2000/svg" viewBox="0 0 64 64"><title>Chè, tráng miệng</title><path d="M15 12h34l-5 46H20z" fill="#EAF8FF" stroke="#3A2A1F" stroke-width="2.6" stroke-linejoin="round" stroke-linecap="round"/><path d="M19.6 47h24.8l-1 11H20.6z" fill="#8A5A3B"/><path d="M18.3 36h27.4l-1.3 11H19.6z" fill="#F7C873"/><path d="M17 24h30l-1.3 12H18.3z" fill="#A5DDB0"/><path d="M15 12h34l-5 46H20z" fill="none" stroke="#3A2A1F" stroke-width="2.6" stroke-linejoin="round" stroke-linecap="round"/><g fill="#FFFFFF" stroke="#3A2A1F" stroke-width="2.6" stroke-linejoin="round" stroke-linecap="round"><rect x="20" y="7" width="9" height="9" rx="2"/><rect x="33" y="5" width="9" height="9" rx="2"/></g><circle cx="27.3" cy="30" r="2.0" fill="#3A2A1F"/><circle cx="28.0" cy="29.3" r="0.7" fill="#fff"/><circle cx="36.7" cy="30" r="2.0" fill="#3A2A1F"/><circle cx="37.4" cy="29.3" r="0.7" fill="#fff"/><path d="M29.8 32.2q2.2 2.2 4.4 0" fill="none" stroke="#3A2A1F" stroke-width="1.7" stroke-linecap="round"/><ellipse cx="23.4" cy="32.4" rx="2.4" ry="1.4" fill="#FF8FB1" opacity=".8"/><ellipse cx="40.6" cy="32.4" rx="2.4" ry="1.4" fill="#FF8FB1" opacity=".8"/></svg>
