<svg xmlns="http://www.w3.org/2000/svg" viewBox="0 0 64 64"><title>Hồ, sông</title><path d="M5 38C5 24 21 21 32 23c12-4 27 2 27 15 0 13-14 18-27 16C19 56 5 51 5 38z" fill="#8ED8FA" stroke="#3A2A1F" stroke-width="2.6" stroke-linejoin="round" stroke-linecap="round"/><path d="M12 46q4-3 8 0t8 0M38 30q4-3 8 0t8 0" fill="none" stroke="#FFFFFF" stroke-width="2.6" stroke-linecap="round"/><g stroke="#3A2A1F" stroke-width="2.6" stroke-linejoin="round" stroke-linecap="round"><path d="M47 47c-3-6 0-9 3-9s6 3 3 9z" fill="#FF9EBB"/></g><ellipse cx="50" cy="48.5" rx="7" ry="2.5" fill="#7BC67E" stroke="#3A2A1F" stroke-width="2.6" stroke-linejoin="round" stroke-linecap="round"/><circle cx="22.5" cy="37" r="2.3" fill="#3A2A1F"/><circle cx="23.3" cy="36.2" r="0.8" fill="#fff"/><circle cx="33.5" cy="37" r="2.3" fill="#3A2A1F"/><circle cx="34.3" cy="36.2" r="0.8" fill="#fff"/><path d="M25.4 39.6q2.6 2.6 5.2 0" fill="none" stroke="#3A2A1F" stroke-width="2.0" stroke-linecap="round"/><ellipse cx="17.9" cy="39.8" rx="2.8" ry="1.7" fill="#FF8FB1" opacity=".8"/><ellipse cx="38.1" cy="39.8" rx="2.8" ry="1.7" fill="#FF8FB1" opacity=".8"/></svg>
