<svg xmlns="http://www.w3.org/2000/svg" viewBox="0 0 64 64"><title>Chợ, mua sắm</title><path d="M14 30V12h36v18" fill="none" stroke="#3A2A1F" stroke-width="2.6" stroke-linejoin="round" stroke-linecap="round"/><path d="M10 12h9v14a4.5 4.5 0 0 1-9 0z" fill="#E4572E" stroke="#3A2A1F" stroke-width="2.6" stroke-linejoin="round" stroke-linecap="round"/><path d="M19 12h9v14a4.5 4.5 0 0 1-9 0z" fill="#FFFFFF" stroke="#3A2A1F" stroke-width="2.6" stroke-linejoin="round" stroke-linecap="round"/><path d="M28 12h9v14a4.5 4.5 0 0 1-9 0z" fill="#E4572E" stroke="#3A2A1F" stroke-width="2.6" stroke-linejoin="round" stroke-linecap="round"/><path d="M37 12h9v14a4.5 4.5 0 0 1-9 0z" fill="#FFFFFF" stroke="#3A2A1F" stroke-width="2.6" stroke-linejoin="round" stroke-linecap="round"/><path d="M46 12h9v14a4.5 4.5 0 0 1-9 0z" fill="#E4572E" stroke="#3A2A1F" stroke-width="2.6" stroke-linejoin="round" stroke-linecap="round"/><rect x="10" y="34" width="44" height="24" rx="3" fill="#F7C873" stroke="#3A2A1F" stroke-width="2.6" stroke-linejoin="round" stroke-linecap="round"/><g stroke="#3A2A1F" stroke-width="2.6" stroke-linejoin="round" stroke-linecap="round"><circle cx="17" cy="33" r="4" fill="#7BC67E"/><circle cx="26" cy="32" r="4" fill="#FF8A65"/><circle cx="38" cy="32" r="4" fill="#FFD86B"/><circle cx="47" cy="33" r="4" fill="#B79CED"/></g><circle cx="27.6" cy="46" r="1.8" fill="#3A2A1F"/><circle cx="28.2" cy="45.4" r="0.6" fill="#fff"/><circle cx="36.4" cy="46" r="1.8" fill="#3A2A1F"/><circle cx="37.0" cy="45.4" r="0.6" fill="#fff"/><path d="M29.9 48.1q2.1 2.1 4.2 0" fill="none" stroke="#3A2A1F" stroke-width="1.6" stroke-linecap="round"/><ellipse cx="23.9" cy="48.2" rx="2.2" ry="1.4" fill="#FF8FB1" opacity=".8"/><ellipse cx="40.1" cy="48.2" rx="2.2" ry="1.4" fill="#FF8FB1" opacity=".8"/></svg>
