<svg xmlns="http://www.w3.org/2000/svg" viewBox="0 0 64 64"><title>Dinh thự, thành cổ</title><path d="M32 4v14" stroke="#3A2A1F" stroke-width="2.6" stroke-linejoin="round" stroke-linecap="round"/><path d="M32 5h11l-3 3.5 3 3.5H32z" fill="#FF8FB1" stroke="#3A2A1F" stroke-width="2.6" stroke-linejoin="round" stroke-linecap="round"/><path d="M7 22 14 9l7 13zM43 22l7-13 7 13z" fill="#FF8FB1" stroke="#3A2A1F" stroke-width="2.6" stroke-linejoin="round" stroke-linecap="round"/><rect x="8" y="22" width="12" height="36" fill="#E9DCFF" stroke="#3A2A1F" stroke-width="2.6" stroke-linejoin="round" stroke-linecap="round"/><rect x="44" y="22" width="12" height="36" fill="#E9DCFF" stroke="#3A2A1F" stroke-width="2.6" stroke-linejoin="round" stroke-linecap="round"/><path d="M20 58V24h4v4h4v-4h8v4h4v-4h4v34z" fill="#F6F0FF" stroke="#3A2A1F" stroke-width="2.6" stroke-linejoin="round" stroke-linecap="round"/><path d="M27 58v-7a5 5 0 0 1 10 0v7" fill="#B79CED" stroke="#3A2A1F" stroke-width="2.6" stroke-linejoin="round" stroke-linecap="round"/><circle cx="27.9" cy="38" r="1.7" fill="#3A2A1F"/><circle cx="28.5" cy="37.4" r="0.6" fill="#fff"/><circle cx="36.1" cy="38" r="1.7" fill="#3A2A1F"/><circle cx="36.7" cy="37.4" r="0.6" fill="#fff"/><path d="M30.1 40.0q2.0 2.0 3.9 0" fill="none" stroke="#3A2A1F" stroke-width="1.5" stroke-linecap="round"/><ellipse cx="24.4" cy="40.1" rx="2.1" ry="1.3" fill="#FF8FB1" opacity=".8"/><ellipse cx="39.6" cy="40.1" rx="2.1" ry="1.3" fill="#FF8FB1" opacity=".8"/></svg>
